<?xml version="1.0" encoding="UTF-8" standalone="no"?>
<!-- Created with Inkscape (http://www.inkscape.org/) -->

<svg
   width="1152"
   height="1152"
   viewBox="0 0 1152 1152"
   version="1.1"
   id="svg1"
   inkscape:version="1.3 (1:1.3+202307231459+0e150ed6c4)"
   sodipodi:docname="road.svg"
   inkscape:export-filename="road.png"
   inkscape:export-xdpi="96"
   inkscape:export-ydpi="96"
   xmlns:inkscape="http://www.inkscape.org/namespaces/inkscape"
   xmlns:sodipodi="http://sodipodi.sourceforge.net/DTD/sodipodi-0.dtd"
   xmlns:xlink="http://www.w3.org/1999/xlink"
   xmlns="http://www.w3.org/2000/svg"
   xmlns:svg="http://www.w3.org/2000/svg"
   xmlns:rdf="http://www.w3.org/1999/02/22-rdf-syntax-ns#"
   xmlns:cc="http://creativecommons.org/ns#">
  <sodipodi:namedview
     id="namedview1"
     pagecolor="#505050"
     bordercolor="#ffffff"
     borderopacity="1"
     inkscape:showpageshadow="false"
     inkscape:pageopacity="0"
     inkscape:pagecheckerboard="true"
     inkscape:deskcolor="#3f3f3f"
     inkscape:document-units="px"
     labelstyle="default"
     inkscape:zoom="0.70710678"
     inkscape:cx="586.89863"
     inkscape:cy="610.94026"
     inkscape:window-width="1536"
     inkscape:window-height="840"
     inkscape:window-x="0"
     inkscape:window-y="0"
     inkscape:window-maximized="1"
     inkscape:current-layer="layer5"
     showgrid="false"
     showborder="true"
     inkscape:clip-to-page="false"
     showguides="true"
     guidecolor="#ffffff"
     guideopacity="0.6">
    <inkscape:grid
       id="grid1"
       units="px"
       originx="576"
       originy="576"
       spacingx="48"
       spacingy="48"
       empcolor="#e5e500"
       empopacity="0.30196078"
       color="#e5e500"
       opacity="0.14901961"
       empspacing="2"
       dotted="false"
       gridanglex="30"
       gridanglez="30"
       visible="false" />
    <sodipodi:guide
       position="576,1152"
       orientation="-1,0"
       id="guide68"
       inkscape:locked="false"
       inkscape:label=""
       inkscape:color="rgb(255,255,255)" />
    <sodipodi:guide
       position="0,576"
       orientation="0,1"
       id="guide69"
       inkscape:locked="false"
       inkscape:label=""
       inkscape:color="rgb(255,255,255)" />
    <inkscape:grid
       id="grid86"
       units="px"
       originx="0"
       originy="0"
       spacingx="4"
       spacingy="4"
       empcolor="#0099e5"
       empopacity="0.30196078"
       color="#0099e5"
       opacity="0.14901961"
       empspacing="4"
       dotted="false"
       gridanglex="30"
       gridanglez="30"
       visible="false"
       enabled="false" />
  </sodipodi:namedview>
  <defs
     id="defs1">
    <color-profile
       name="Compatible-with-Adobe-RGB-1998"
       xlink:href="file:///usr/share/color/icc/colord/AdobeRGB1998.icc"
       id="color-profile2" />
  </defs>
  <g
     inkscape:groupmode="layer"
     id="layer4"
     inkscape:label="ground"
     style="display:inline"
     sodipodi:insensitive="true">
    <rect
       style="fill:#545454;fill-opacity:1;stroke:none;stroke-width:4;stroke-linecap:butt;stroke-dasharray:none;stroke-opacity:1;paint-order:markers stroke fill"
       id="rect87"
       width="1152"
       height="1152"
       x="0"
       y="0" />
  </g>
  <g
     inkscape:groupmode="layer"
     id="layer2"
     inkscape:label="road"
     style="display:inline"
     sodipodi:insensitive="true">
    <path
       style="fill:none;fill-opacity:0.5;stroke:#ededed;stroke-width:4;stroke-linecap:butt;stroke-dasharray:none;stroke-opacity:1;paint-order:markers stroke fill"
       d="m 864,0 v 288 h 288"
       id="path69" />
    <path
       style="fill:none;fill-opacity:0.5;stroke:#ededed;stroke-width:4;stroke-linecap:butt;stroke-dasharray:none;stroke-opacity:1;paint-order:markers stroke fill"
       d="M 288,0 V 288 H 0"
       id="path70" />
    <path
       style="fill:none;fill-opacity:0.5;stroke:#ededed;stroke-width:4;stroke-linecap:butt;stroke-dasharray:none;stroke-opacity:1;paint-order:markers stroke fill"
       d="M 1152,864 H 864 v 288"
       id="path71" />
    <path
       style="fill:none;fill-opacity:0.5;stroke:#ededed;stroke-width:4;stroke-linecap:butt;stroke-dasharray:none;stroke-opacity:1;paint-order:markers stroke fill"
       d="m 0,864 h 288 v 288"
       id="path72" />
    <path
       style="fill:none;fill-opacity:0.5;stroke:#ededed;stroke-width:4;stroke-linecap:butt;stroke-dasharray:none;stroke-opacity:1;paint-order:markers stroke fill"
       d="M 384,0 V 288"
       id="path73" />
    <path
       style="fill:none;fill-opacity:0.5;stroke:#ededed;stroke-width:4;stroke-linecap:butt;stroke-dasharray:none;stroke-opacity:1;paint-order:markers stroke fill"
       d="M 480,0 V 288"
       id="path74" />
    <path
       style="fill:none;fill-opacity:0.5;stroke:#ededed;stroke-width:4;stroke-linecap:butt;stroke-dasharray:none;stroke-opacity:1;paint-order:markers stroke fill"
       d="M 576,0 V 288"
       id="path75" />
    <path
       style="fill:none;fill-opacity:0.5;stroke:#ededed;stroke-width:4;stroke-linecap:butt;stroke-dasharray:none;stroke-opacity:1;paint-order:markers stroke fill"
       d="M 672,0 V 288"
       id="path76" />
    <path
       style="fill:none;fill-opacity:0.5;stroke:#ededed;stroke-width:4;stroke-linecap:butt;stroke-dasharray:none;stroke-opacity:1;paint-order:markers stroke fill"
       d="M 768,0 V 288"
       id="path77" />
    <path
       style="fill:none;fill-opacity:0.5;stroke:#ededed;stroke-width:4;stroke-linecap:butt;stroke-dasharray:none;stroke-opacity:1;paint-order:markers stroke fill"
       d="m 384,864 v 288"
       id="path73-1" />
    <path
       style="fill:none;fill-opacity:0.5;stroke:#ededed;stroke-width:4;stroke-linecap:butt;stroke-dasharray:none;stroke-opacity:1;paint-order:markers stroke fill"
       d="m 480,864 v 288"
       id="path74-5" />
    <path
       style="fill:none;fill-opacity:0.5;stroke:#ededed;stroke-width:4;stroke-linecap:butt;stroke-dasharray:none;stroke-opacity:1;paint-order:markers stroke fill"
       d="m 576,864 v 288"
       id="path75-9" />
    <path
       style="fill:none;fill-opacity:0.5;stroke:#ededed;stroke-width:4;stroke-linecap:butt;stroke-dasharray:none;stroke-opacity:1;paint-order:markers stroke fill"
       d="m 672,864 v 288"
       id="path76-7" />
    <path
       style="fill:none;fill-opacity:0.5;stroke:#ededed;stroke-width:4;stroke-linecap:butt;stroke-dasharray:none;stroke-opacity:1;paint-order:markers stroke fill"
       d="m 768,864 v 288"
       id="path77-7" />
    <path
       style="fill:none;fill-opacity:0.5;stroke:#ededed;stroke-width:4;stroke-linecap:butt;stroke-dasharray:none;stroke-opacity:1;paint-order:markers stroke fill"
       d="M 0,384 H 288"
       id="path78" />
    <path
       style="fill:none;fill-opacity:0.5;stroke:#ededed;stroke-width:4;stroke-linecap:butt;stroke-dasharray:none;stroke-opacity:1;paint-order:markers stroke fill"
       d="M 0,480 H 288"
       id="path79" />
    <path
       style="fill:none;fill-opacity:0.5;stroke:#ededed;stroke-width:4;stroke-linecap:butt;stroke-dasharray:none;stroke-opacity:1;paint-order:markers stroke fill"
       d="M 0,576 H 288"
       id="path80" />
    <path
       style="fill:none;fill-opacity:0.5;stroke:#ededed;stroke-width:4;stroke-linecap:butt;stroke-dasharray:none;stroke-opacity:1;paint-order:markers stroke fill"
       d="M 0,672 H 288"
       id="path81" />
    <path
       style="fill:none;fill-opacity:0.5;stroke:#ededed;stroke-width:4;stroke-linecap:butt;stroke-dasharray:none;stroke-opacity:1;paint-order:markers stroke fill"
       d="M 0,768 H 288"
       id="path82" />
    <path
       style="fill:none;fill-opacity:0.5;stroke:#ededed;stroke-width:4;stroke-linecap:butt;stroke-dasharray:none;stroke-opacity:1;paint-order:markers stroke fill"
       d="m 864,384 h 288"
       id="path78-4" />
    <path
       style="fill:none;fill-opacity:0.5;stroke:#ededed;stroke-width:4;stroke-linecap:butt;stroke-dasharray:none;stroke-opacity:1;paint-order:markers stroke fill"
       d="m 864,480 h 288"
       id="path79-9" />
    <path
       style="fill:none;fill-opacity:0.5;stroke:#ededed;stroke-width:4;stroke-linecap:butt;stroke-dasharray:none;stroke-opacity:1;paint-order:markers stroke fill"
       d="m 864,576 h 288"
       id="path80-0" />
    <path
       style="fill:none;fill-opacity:0.5;stroke:#ededed;stroke-width:4;stroke-linecap:butt;stroke-dasharray:none;stroke-opacity:1;paint-order:markers stroke fill"
       d="m 864,672 h 288"
       id="path81-9" />
    <path
       style="fill:none;fill-opacity:0.5;stroke:#ededed;stroke-width:4;stroke-linecap:butt;stroke-dasharray:none;stroke-opacity:1;paint-order:markers stroke fill"
       d="m 864,768 h 288"
       id="path82-1" />
    <path
       style="fill:none;fill-opacity:0.5;stroke:#ededed;stroke-width:4;stroke-linecap:butt;stroke-dasharray:none;stroke-opacity:1;paint-order:markers stroke fill"
       d="M 576,288 H 288"
       id="path83" />
    <path
       style="fill:none;fill-opacity:0.5;stroke:#ededed;stroke-width:4;stroke-linecap:butt;stroke-dasharray:none;stroke-opacity:1;paint-order:markers stroke fill"
       d="M 288,576 V 864"
       id="path84" />
    <path
       style="fill:none;fill-opacity:0.5;stroke:#ededed;stroke-width:4;stroke-linecap:butt;stroke-dasharray:none;stroke-opacity:1;paint-order:markers stroke fill"
       d="M 576,864 H 864"
       id="path85" />
    <path
       style="fill:none;fill-opacity:0.5;stroke:#ededed;stroke-width:4;stroke-linecap:butt;stroke-dasharray:none;stroke-opacity:1;paint-order:markers stroke fill"
       d="M 864,288 V 576"
       id="path86" />
  </g>
  <g
     id="g6">
    <path
       style="fill:#121212;fill-opacity:1;stroke:none;stroke-width:4;stroke-linecap:butt;stroke-dasharray:none;stroke-opacity:1;paint-order:markers stroke fill"
       d="m 428,272 h 8 v -4 h 4 v -4 h 4 v -4 h 4 v -4 h -12 v -48 h -8 v 48 h -12 v 4 h 4 v 4 h 4 v 4 h 4 z"
       id="path87" />
    <path
       style="fill:#121212;fill-opacity:1;stroke:none;stroke-width:4;stroke-linecap:butt;stroke-dasharray:none;stroke-opacity:1;paint-order:markers stroke fill"
       d="m 304,236 v 8 h 4 v 4 h 4 v 4 h 4 v 4 h 4 v -12 h 48 v -8 h -48 v -12 h -4 v 4 h -4 v 4 h -4 v 4 z"
       id="path87-6" />
    <path
       style="fill:#121212;fill-opacity:1;stroke:none;stroke-width:4;stroke-linecap:butt;stroke-dasharray:none;stroke-opacity:1;paint-order:markers stroke fill"
       d="m 560,244 v -8 h -4 v -4 h -4 v -4 h -4 v -4 h -4 v 12 h -48 v 8 h 48 v 12 h 4 v -4 h 4 v -4 h 4 v -4 z"
       id="path87-9" />
    <path
       style="fill:#121212;fill-opacity:1;stroke:none;stroke-width:4;stroke-linecap:butt;stroke-dasharray:none;stroke-opacity:1;paint-order:markers stroke fill"
       d="m 908,560 h 8 v -4 h 4 v -4 h 4 v -4 h 4 v -4 h -12 v -48 h -8 v 48 h -12 v 4 h 4 v 4 h 4 v 4 h 4 z"
       id="path87-2" />
    <path
       style="fill:#121212;fill-opacity:1;stroke:none;stroke-width:4;stroke-linecap:butt;stroke-dasharray:none;stroke-opacity:1;paint-order:markers stroke fill"
       d="m 908,304 h 8 v 4 h 4 v 4 h 4 v 4 h 4 v 4 h -12 v 48 h -8 v -48 h -12 v -4 h 4 v -4 h 4 v -4 h 4 z"
       id="path87-0" />
    <path
       style="fill:#121212;fill-opacity:1;stroke:none;stroke-width:4;stroke-linecap:butt;stroke-dasharray:none;stroke-opacity:1;paint-order:markers stroke fill"
       d="m 880,428 v 8 h 4 v 4 h 4 v 4 h 4 v 4 h 4 v -12 h 48 v -8 h -48 v -12 h -4 v 4 h -4 v 4 h -4 v 4 z"
       id="path87-09" />
    <path
       style="fill:#121212;fill-opacity:1;stroke:none;stroke-width:4;stroke-linecap:butt;stroke-dasharray:none;stroke-opacity:1;paint-order:markers stroke fill"
       d="m 716,880 h 8 v 4 h 4 v 4 h 4 v 4 h 4 v 4 h -12 v 48 h -8 v -48 h -12 v -4 h 4 v -4 h 4 v -4 h 4 z"
       id="path87-5" />
    <path
       style="fill:#121212;fill-opacity:1;stroke:none;stroke-width:4;stroke-linecap:butt;stroke-dasharray:none;stroke-opacity:1;paint-order:markers stroke fill"
       d="m 848,916 v -8 h -4 v -4 h -4 v -4 h -4 v -4 h -4 v 12 h -48 v 8 h 48 v 12 h 4 v -4 h 4 v -4 h 4 v -4 z"
       id="path87-59" />
    <path
       style="fill:#121212;fill-opacity:1;stroke:none;stroke-width:4;stroke-linecap:butt;stroke-dasharray:none;stroke-opacity:1;paint-order:markers stroke fill"
       d="m 592,908 v 8 h 4 v 4 h 4 v 4 h 4 v 4 h 4 v -12 h 48 v -8 h -48 v -12 h -4 v 4 h -4 v 4 h -4 v 4 z"
       id="path87-1" />
    <path
       style="fill:#121212;fill-opacity:1;stroke:none;stroke-width:4;stroke-linecap:butt;stroke-dasharray:none;stroke-opacity:1;paint-order:markers stroke fill"
       d="m 236,848 h 8 v -4 h 4 v -4 h 4 v -4 h 4 v -4 h -12 v -48 h -8 v 48 h -12 v 4 h 4 v 4 h 4 v 4 h 4 z"
       id="path87-4" />
    <path
       style="fill:#121212;fill-opacity:1;stroke:none;stroke-width:4;stroke-linecap:butt;stroke-dasharray:none;stroke-opacity:1;paint-order:markers stroke fill"
       d="m 236,592 h 8 v 4 h 4 v 4 h 4 v 4 h 4 v 4 h -12 v 48 h -8 v -48 h -12 v -4 h 4 v -4 h 4 v -4 h 4 z"
       id="path87-7" />
    <path
       style="fill:#121212;fill-opacity:1;stroke:none;stroke-width:4;stroke-linecap:butt;stroke-dasharray:none;stroke-opacity:1;paint-order:markers stroke fill"
       d="m 272,724 v -8 h -4 v -4 h -4 v -4 h -4 v -4 h -4 v 12 h -48 v 8 h 48 v 12 h 4 v -4 h 4 v -4 h 4 v -4 z"
       id="path87-75" />
  </g>
  <g
     inkscape:groupmode="layer"
     id="layer5"
     inkscape:label="car-center-points"
     style="display:inline">
    <circle
       style="fill:#ff0000;fill-opacity:1;stroke:none;stroke-width:4;stroke-opacity:1;paint-order:markers stroke fill"
       id="path1"
       cx="1104"
       cy="336"
       r="32" />
    <circle
       style="fill:#ff0000;fill-opacity:1;stroke:none;stroke-width:4;stroke-opacity:1;paint-order:markers stroke fill"
       id="path1-6"
       cx="1008"
       cy="336"
       r="32" />
    <circle
       style="fill:#ff0000;fill-opacity:1;stroke:none;stroke-width:4;stroke-opacity:1;paint-order:markers stroke fill"
       id="path1-61"
       cx="912"
       cy="336"
       r="32" />
    <circle
       style="display:inline;fill:#ff0000;fill-opacity:1;stroke:none;stroke-width:4;stroke-opacity:1;paint-order:markers stroke fill"
       id="path1-61-17"
       cx="816"
       cy="336"
       r="32" />
    <circle
       style="display:inline;fill:#ff0000;fill-opacity:1;stroke:none;stroke-width:4;stroke-opacity:1;paint-order:markers stroke fill"
       id="path1-61-5"
       cx="816"
       cy="48"
       r="32" />
    <circle
       style="display:inline;fill:#ff0000;fill-opacity:1;stroke:none;stroke-width:4;stroke-opacity:1;paint-order:markers stroke fill"
       id="path1-61-6"
       cx="816"
       cy="816"
       r="16" />
    <circle
       style="display:inline;fill:#ff0000;fill-opacity:1;stroke:none;stroke-width:4;stroke-opacity:1;paint-order:markers stroke fill"
       id="path1-61-56"
       cx="1104"
       cy="816"
       r="16" />
    <circle
       style="display:inline;fill:#ff0000;fill-opacity:1;stroke:none;stroke-width:4;stroke-opacity:1;paint-order:markers stroke fill"
       id="path1-61-81"
       cx="336"
       cy="816"
       r="8" />
    <circle
       style="display:inline;fill:#ff0000;fill-opacity:1;stroke:none;stroke-width:4;stroke-opacity:1;paint-order:markers stroke fill"
       id="path1-61-9"
       cx="336"
       cy="1104"
       r="8" />
    <circle
       style="display:inline;fill:#00ff00;fill-opacity:1;stroke:none;stroke-width:4;stroke-opacity:1;paint-order:markers stroke fill"
       id="path1-61-87"
       cx="912"
       cy="432"
       r="32" />
    <circle
       style="display:inline;fill:#00ff00;fill-opacity:1;stroke:none;stroke-width:4;stroke-opacity:1;paint-order:markers stroke fill"
       id="path1-61-7"
       cx="1008"
       cy="432"
       r="32" />
    <circle
       style="display:inline;fill:#00ff00;fill-opacity:1;stroke:none;stroke-width:4;stroke-opacity:1;paint-order:markers stroke fill"
       id="path1-61-1"
       cx="1104"
       cy="432"
       r="32" />
    <circle
       style="display:inline;fill:#0000ff;fill-opacity:1;stroke:none;stroke-width:4;stroke-opacity:1;paint-order:markers stroke fill"
       id="path1-61-87-5"
       cx="912"
       cy="528"
       r="32" />
    <circle
       style="display:inline;fill:#0000ff;fill-opacity:1;stroke:none;stroke-width:4;stroke-opacity:1;paint-order:markers stroke fill"
       id="path1-61-7-9"
       cx="1008"
       cy="528"
       r="32" />
    <circle
       style="display:inline;fill:#0000ff;fill-opacity:1;stroke:none;stroke-width:4;stroke-opacity:1;paint-order:markers stroke fill"
       id="path1-61-1-4"
       cx="1104"
       cy="528"
       r="32" />
    <circle
       style="display:inline;fill:#0000ff;fill-opacity:1;stroke:none;stroke-width:4;stroke-opacity:1;paint-order:markers stroke fill"
       id="path1-2-5"
       cx="624"
       cy="1008"
       r="16" />
    <circle
       style="display:inline;fill:#00ff00;fill-opacity:1;stroke:none;stroke-width:4;stroke-opacity:1;paint-order:markers stroke fill"
       id="path1-7-4"
       cx="720"
       cy="1008"
       r="16" />
    <circle
       style="display:inline;fill:#ff0000;fill-opacity:1;stroke:none;stroke-width:4;stroke-opacity:1;paint-order:markers stroke fill"
       id="path1-28-7"
       cx="816"
       cy="1008"
       r="16" />
    <circle
       style="display:inline;fill:#ff0000;fill-opacity:1;stroke:none;stroke-width:4;stroke-opacity:1;paint-order:markers stroke fill"
       id="path1-612-6"
       cx="816"
       cy="1104"
       r="16" />
    <circle
       style="display:inline;fill:#00ff00;fill-opacity:1;stroke:none;stroke-width:4;stroke-opacity:1;paint-order:markers stroke fill"
       id="path1-9-5"
       cx="720"
       cy="1104"
       r="16" />
    <circle
       style="display:inline;fill:#0000ff;fill-opacity:1;stroke:none;stroke-width:4;stroke-opacity:1;paint-order:markers stroke fill"
       id="path1-4-6"
       cx="624"
       cy="1104"
       r="16" />
    <circle
       style="fill:#ff0000;fill-opacity:1;stroke:none;stroke-width:4;stroke-opacity:1;paint-order:markers stroke fill"
       id="path1-93"
       cx="816"
       cy="912"
       r="16" />
    <circle
       style="fill:#00ff00;fill-opacity:1;stroke:none;stroke-width:4;stroke-opacity:1;paint-order:markers stroke fill"
       id="path1-6-7"
       cx="720"
       cy="912"
       r="16" />
    <circle
       style="fill:#0000ff;fill-opacity:1;stroke:none;stroke-width:4;stroke-opacity:1;paint-order:markers stroke fill"
       id="path1-61-4"
       cx="624"
       cy="912"
       r="16" />
    <circle
       style="display:inline;fill:#00ff00;fill-opacity:1;stroke:none;stroke-width:4;stroke-opacity:1;paint-order:markers stroke fill"
       id="path1-2-4"
       cx="48"
       cy="720"
       r="8" />
    <circle
       style="display:inline;fill:#00ff00;fill-opacity:1;stroke:none;stroke-width:4;stroke-opacity:1;paint-order:markers stroke fill"
       id="path1-7-7"
       cx="144"
       cy="720"
       r="8" />
    <circle
       style="display:inline;fill:#00ff00;fill-opacity:1;stroke:none;stroke-width:4;stroke-opacity:1;paint-order:markers stroke fill"
       id="path1-28-4"
       cx="240"
       cy="720"
       r="8" />
    <circle
       style="display:inline;fill:#ff0000;fill-opacity:1;stroke:none;stroke-width:4;stroke-opacity:1;paint-order:markers stroke fill"
       id="path1-612-4"
       cx="240"
       cy="816"
       r="8" />
    <circle
       style="display:inline;fill:#ff0000;fill-opacity:1;stroke:none;stroke-width:4;stroke-opacity:1;paint-order:markers stroke fill"
       id="path1-9-3"
       cx="144"
       cy="816"
       r="8" />
    <circle
       style="display:inline;fill:#ff0000;fill-opacity:1;stroke:none;stroke-width:4;stroke-opacity:1;paint-order:markers stroke fill"
       id="path1-4-0"
       cx="48"
       cy="816"
       r="8" />
    <circle
       style="fill:#0000ff;fill-opacity:1;stroke:none;stroke-width:4;stroke-opacity:1;paint-order:markers stroke fill"
       id="path1-78"
       cx="240"
       cy="624"
       r="8" />
    <circle
       style="fill:#0000ff;fill-opacity:1;stroke:none;stroke-width:4;stroke-opacity:1;paint-order:markers stroke fill"
       id="path1-6-6"
       cx="144"
       cy="624"
       r="8" />
    <circle
       style="fill:#0000ff;fill-opacity:1;stroke:none;stroke-width:4;stroke-opacity:1;paint-order:markers stroke fill"
       id="path1-61-8"
       cx="48"
       cy="624"
       r="8" />
    <circle
       style="display:inline;fill:#ff0000;fill-opacity:1;stroke:none;stroke-width:4;stroke-opacity:1;paint-order:markers stroke fill"
       id="path1-2-1"
       cx="336"
       cy="144"
       r="4" />
    <circle
       style="display:inline;fill:#00ff00;fill-opacity:1;stroke:none;stroke-width:4;stroke-opacity:1;paint-order:markers stroke fill"
       id="path1-7-49"
       cx="432"
       cy="144"
       r="4" />
    <circle
       style="display:inline;fill:#0000ff;fill-opacity:1;stroke:none;stroke-width:4;stroke-opacity:1;paint-order:markers stroke fill"
       id="path1-28-2"
       cx="528"
       cy="144"
       r="4" />
    <circle
       style="display:inline;fill:#0000ff;fill-opacity:1;stroke:none;stroke-width:4;stroke-opacity:1;paint-order:markers stroke fill"
       id="path1-612-0"
       cx="528"
       cy="240"
       r="4" />
    <circle
       style="display:inline;fill:#00ff00;fill-opacity:1;stroke:none;stroke-width:4;stroke-opacity:1;paint-order:markers stroke fill"
       id="path1-9-6"
       cx="432"
       cy="240"
       r="4" />
    <circle
       style="display:inline;fill:#ff0000;fill-opacity:1;stroke:none;stroke-width:4;stroke-opacity:1;paint-order:markers stroke fill"
       id="path1-4-8"
       cx="336"
       cy="240"
       r="4" />
    <circle
       style="fill:#0000ff;fill-opacity:1;stroke:none;stroke-width:4;stroke-opacity:1;paint-order:markers stroke fill"
       id="path1-92"
       cx="528"
       cy="48"
       r="4" />
    <circle
       style="fill:#00ff00;fill-opacity:1;stroke:none;stroke-width:4;stroke-opacity:1;paint-order:markers stroke fill"
       id="path1-6-66"
       cx="432"
       cy="48"
       r="4" />
    <circle
       style="fill:#ff0000;fill-opacity:1;stroke:none;stroke-width:4;stroke-opacity:1;paint-order:markers stroke fill"
       id="path1-61-49"
       cx="336"
       cy="48"
       r="4" />
    <circle
       style="display:inline;fill:#ff0000;fill-opacity:1;stroke:none;stroke-width:4;stroke-opacity:1;paint-order:markers stroke fill"
       id="path1-61-50"
       cx="336"
       cy="336"
       r="4" />
    <circle
       style="display:inline;fill:#ff0000;fill-opacity:1;stroke:none;stroke-width:4;stroke-opacity:1;paint-order:markers stroke fill"
       id="path1-61-85"
       cx="48"
       cy="336"
       r="4" />
    <circle
       style="display:inline;fill:#00ff00;fill-opacity:1;stroke:none;stroke-width:4;stroke-opacity:1;paint-order:markers stroke fill"
       id="path1-61-59"
       cx="48"
       cy="432"
       r="32" />
    <circle
       style="display:inline;fill:#0000ff;fill-opacity:1;stroke:none;stroke-width:4;stroke-opacity:1;paint-order:markers stroke fill"
       id="path1-61-10"
       cx="48"
       cy="528"
       r="16" />
    <circle
       style="display:inline;fill:#00ff00;fill-opacity:1;stroke:none;stroke-width:4;stroke-opacity:1;paint-order:markers stroke fill"
       id="path1-61-44"
       cx="432"
       cy="1104"
       r="4" />
    <circle
       style="display:inline;fill:#0000ff;fill-opacity:1;stroke:none;stroke-width:4;stroke-opacity:1;paint-order:markers stroke fill"
       id="path1-61-3"
       cx="528"
       cy="1104"
       r="32" />
    <circle
       style="display:inline;fill:#00ff00;fill-opacity:1;stroke:none;stroke-width:4;stroke-opacity:1;paint-order:markers stroke fill"
       id="path1-61-96"
       cx="1104"
       cy="720"
       r="8" />
    <circle
       style="display:inline;fill:#0000ff;fill-opacity:1;stroke:none;stroke-width:4;stroke-opacity:1;paint-order:markers stroke fill"
       id="path1-61-83"
       cx="624"
       cy="48"
       r="8" />
    <circle
       style="display:inline;fill:#0000ff;fill-opacity:1;stroke:none;stroke-width:4;stroke-opacity:1;paint-order:markers stroke fill"
       id="path1-61-857"
       cx="1104"
       cy="624"
       r="4" />
    <circle
       style="display:inline;fill:#00ff00;fill-opacity:1;stroke:none;stroke-width:4;stroke-opacity:1;paint-order:markers stroke fill"
       id="path1-61-597"
       cx="720"
       cy="48"
       r="16" />
    <circle
       style="display:inline;fill:#0000ff;fill-opacity:1;stroke:none;stroke-width:4;stroke-opacity:1;paint-order:markers stroke fill"
       id="path1-61-64"
       cx="624"
       cy="528"
       r="16" />
    <circle
       style="display:inline;fill:#0000ff;fill-opacity:1;stroke:none;stroke-width:4;stroke-opacity:1;paint-order:markers stroke fill"
       id="path1-61-86"
       cx="624"
       cy="624"
       r="8" />
    <circle
       style="display:inline;fill:#0000ff;fill-opacity:1;stroke:none;stroke-width:4;stroke-opacity:1;paint-order:markers stroke fill"
       id="path1-61-88"
       cx="528"
       cy="528"
       r="32" />
    <circle
       style="display:inline;fill:#0000ff;fill-opacity:1;stroke:none;stroke-width:4;stroke-opacity:1;paint-order:markers stroke fill"
       id="path1-61-643"
       cx="528"
       cy="624"
       r="4" />
  </g>
  <g
     inkscape:label="Layer 1"
     inkscape:groupmode="layer"
     id="layer1"
     sodipodi:insensitive="true"
     style="display:inline">
    <use
       x="0"
       y="0"
       xlink:href="#path2"
       id="use20"
       transform="matrix(-1,0,0,1,96,0)" />
    <use
       x="0"
       y="0"
       xlink:href="#path15"
       id="use21"
       transform="matrix(-1,0,0,1,96,0)" />
    <path
       style="fill:#a80000;fill-opacity:1;stroke:none;stroke-width:2;stroke-linecap:round;paint-order:markers stroke fill"
       d="m 48,12.000002 h 20 v 9.999997 l -1,-2e-6 v 1.000002 l -1,-2e-6 v 1.000002 h -8 l -10e-7,0.999997 -0.999999,3e-6 -10e-7,0.999997 -0.999999,3e-6 v 11.999999 l 0.999999,-10e-7 10e-7,1.000001 0.999999,-10e-7 10e-7,1.000001 h 8 v 0.999998 l 1,2e-6 v 0.999998 l 1,2e-6 v 12 l -1,-2e-6 v 1.000002 l -1,-2e-6 v 1.000002 h -8 l -10e-7,0.999998 -0.999999,2e-6 -10e-7,0.999998 -0.999999,2e-6 v 11.999999 l 0.999999,-2e-6 10e-7,1.000002 0.999999,-2e-6 10e-7,1.000002 h 8 v 0.999997 l 1,3e-6 v 0.999997 l 1,3e-6 v 2.000002 l -1,-2e-6 v 1 l -1.000001,1e-6 v 1 h -1 L 65,78.999997 64,79 v 1.000001 L 63,80 v 0.999997 h -1 v 1 h -1 v 1 l -0.999999,2e-6 1e-6,1.000002 H 48 Z"
       id="path2"
       sodipodi:nodetypes="ccccccccccccccccccccccccccccccccccccccccccccccccccccccccccccc" />
    <path
       style="fill:#ededed;fill-opacity:1;stroke:none;stroke-width:2;stroke-linecap:round;paint-order:markers stroke fill"
       d="M 67.999999,16.000003 H 28.000001 v -4.000001 h 39.999998 z"
       id="path13" />
    <path
       style="fill:#ededed;fill-opacity:1;stroke:none;stroke-width:2;stroke-linecap:round;paint-order:markers stroke fill"
       d="M 60,81.999997 H 36 v 2 h 24 z"
       id="path14" />
    <path
       style="fill:#c7fcfc;fill-opacity:1;stroke:none;stroke-width:2;stroke-linecap:round;paint-order:markers stroke fill"
       d="m 48,38.000002 h 2 v 0.999996 h 2 v 1.999997 h 2 v 14.000001 h -2 v 2 l -2,-4e-6 v 1.000004 l -2,3e-6 z"
       id="path15"
       sodipodi:nodetypes="ccccccccccccc" />
    <g
       id="g19">
      <path
         style="fill:#000000;fill-opacity:1;stroke:none;stroke-width:2;stroke-linecap:round;paint-order:markers stroke fill"
         d="m 59,26.999999 h 1 v -1 h 6 l 10e-7,0.999998 0.999999,2e-6 10e-7,0.999998 0.999999,2e-6 v 8 h -1 v 0.999999 l -1,1e-6 v 0.999999 H 60 V 37 l -1,-2e-6 L 58.999999,36 58,35.999999 v -7.999997 l 1,-3e-6 z"
         id="path5"
         sodipodi:nodetypes="ccccccccccccccccccccc" />
      <path
         style="fill:#262626;fill-opacity:1;stroke:none;stroke-width:2;stroke-linecap:round;paint-order:markers stroke fill"
         d="m 60,29.999999 -2,3e-6 v 4 l 2,-3e-6 z"
         id="path7"
         sodipodi:nodetypes="ccccc" />
      <path
         style="fill:#1a1a1a;fill-opacity:1;stroke:none;stroke-width:2;stroke-linecap:round;paint-order:markers stroke fill"
         d="m 60,27.999999 -2,3e-6 v 2.000001 L 60,30 Z"
         id="path7-4"
         sodipodi:nodetypes="ccccc" />
      <use
         x="0"
         y="0"
         xlink:href="#path7"
         id="use17-7"
         transform="translate(4)" />
      <use
         x="0"
         y="0"
         xlink:href="#path7"
         id="use17-28"
         transform="translate(8)" />
      <use
         x="0"
         y="0"
         xlink:href="#path7-4"
         id="use17"
         transform="translate(4)" />
      <use
         x="0"
         y="0"
         xlink:href="#path7-4"
         id="use17-5"
         transform="translate(8)" />
      <use
         x="0"
         y="0"
         xlink:href="#path7-4"
         id="use17-1"
         transform="translate(0,6)" />
      <use
         x="0"
         y="0"
         xlink:href="#path7-4"
         id="use17-2"
         transform="translate(4,6)" />
      <use
         x="0"
         y="0"
         xlink:href="#path7-4"
         id="use17-55"
         transform="translate(8,6)" />
      <use
         x="0"
         y="0"
         xlink:href="#path7-4"
         id="use17-56"
         transform="translate(2,2)" />
      <use
         x="0"
         y="0"
         xlink:href="#path7-4"
         id="use17-4"
         transform="translate(6,2)" />
      <use
         x="0"
         y="0"
         xlink:href="#path7-4"
         id="use17-47"
         transform="translate(2,4)" />
      <use
         x="0"
         y="0"
         xlink:href="#path7-4"
         id="use17-0"
         transform="translate(6,4)" />
      <path
         style="fill:#808080;fill-opacity:1;stroke:none;stroke-width:2;stroke-linecap:round;paint-order:markers stroke fill"
         d="m 56,29.999999 h 2 v 4 h -2 z"
         id="path17" />
      <path
         style="fill:#ededed;fill-opacity:1;stroke:none;stroke-width:2;stroke-linecap:round;paint-order:markers stroke fill"
         d="m 56,30.999999 h 2 v 2 h -2 z"
         id="path18" />
    </g>
    <path
       id="path19"
       style="fill:#9e0000;fill-opacity:1;stroke:none;stroke-width:2;stroke-linecap:round;paint-order:markers stroke fill"
       d="m 30,12 v 1 h 1 v 1 h 2 v -1 h -1 v -1 z m 4,0 v 1 h 1 v 1 h 2 v -1 h -1 v -1 z m 4,0 v 1 h 1 v 1 h 2 v -1 h -1 v -1 z m 4,0 v 1 h 1 v 1 h 2 v -1 h -1 v -1 z m 4,0 v 1 h 1 v 1 h 2 v -1 h 1 v -1 z m 6,0 v 1 h -1 v 1 h 2 v -1 h 1 v -1 z m 4,0 v 1 h -1 v 1 h 2 v -1 h 1 v -1 z m 4,0 v 1 h -1 v 1 h 2 v -1 h 1 v -1 z m 4,0 v 1 h -1 v 1 h 2 v -1 h 1 v -1 z" />
    <use
       x="0"
       y="0"
       xlink:href="#g19"
       id="use19"
       transform="translate(0,31.999998)" />
    <use
       x="0"
       y="0"
       xlink:href="#g19"
       id="use19-7"
       transform="matrix(-1,0,0,1,96,31.999999)" />
    <use
       x="0"
       y="0"
       xlink:href="#g19"
       id="use19-2"
       transform="matrix(-1,0,0,1,96,-3.1666666e-6)" />
    <path
       style="fill:#000000;fill-opacity:0.502212;stroke:none;stroke-width:2;stroke-linecap:round;paint-order:markers stroke fill"
       d="m 66,40.999998 v 14 h 1 v -1 h 1 v -12 h -1 v -1 z"
       id="path21"
       sodipodi:nodetypes="ccccccccc" />
    <path
       style="fill:#000000;fill-opacity:0.3;stroke:none;stroke-width:2;stroke-linecap:round;paint-order:markers stroke fill"
       d="m 62,39.999998 v 16 h 4 v -16 z"
       id="path22" />
    <path
       id="path23"
       style="fill:#000000;fill-opacity:0.2;stroke:none;stroke-width:2;stroke-linecap:round;paint-order:markers stroke fill"
       d="m 52,16 v 2 9 h -2 v 7 h -2 v 4 h 2 v 1 h 2 v 2 h 2 v 14 h -2 v 2 h -2 v 6 h 1 v 3 h 1 v -6 h 2 v -1 h 2 v -1 h 1 v -1 h 1 v -1 h 4 V 54 H 58 V 42.087891 L 62,42 v -2 h -4 v -1 h -1 v -1 h -1 v -1 h -2 v -1 h -2 v -8 h 2 v -1 h 2 v -1 h 1 v -1 h 1 v -1 h 4 v -2 h -4 v -4 h 4 v -2 z" />
    <path
       style="fill:#000000;fill-opacity:0.5;stroke:none;stroke-width:2;stroke-linecap:round;paint-order:markers stroke fill"
       d="m 56,36.999998 h -2 v -9.999999 h 2 z"
       id="path24" />
    <path
       style="fill:#000000;fill-opacity:0.3;stroke:none;stroke-width:2;stroke-linecap:round;paint-order:markers stroke fill"
       d="m 52,35.999999 h 2 v -8 h -2 z"
       id="path25" />
    <path
       style="fill:#000000;fill-opacity:0.5;stroke:none;stroke-width:2;stroke-linecap:round;paint-order:markers stroke fill"
       d="m 66,15.999999 h 2 v 6 h -1 v 1 h -1 z"
       id="path27" />
    <path
       style="fill:#000000;fill-opacity:0.3;stroke:none;stroke-width:2;stroke-linecap:round;paint-order:markers stroke fill"
       d="m 66,23.999999 h -4 v -8 h 4 z"
       id="path28"
       sodipodi:nodetypes="ccccc" />
    <path
       style="fill:#000000;fill-opacity:0.2;stroke:none;stroke-width:2;stroke-linecap:round;paint-order:markers stroke fill"
       d="m 60,80.999997 h 1 v -2 h 1 v -1 h 1 v -2 h -1 v -1 h -1 v -1 h -1 v -1 h -1 v -1 h 5 v 8 h -1 v 1 h -1 v 1 h -1 v 1 h -1 z"
       id="path30"
       sodipodi:nodetypes="ccccccccccccccccccccccccc" />
    <path
       style="fill:#000000;fill-opacity:0.3;stroke:none;stroke-width:2;stroke-linecap:round;paint-order:markers stroke fill"
       d="m 64,71.999997 h 2 v 6 h -1 v 1 h -1 z"
       id="path31" />
    <path
       style="fill:#000000;fill-opacity:0.5;stroke:none;stroke-width:2;stroke-linecap:round;paint-order:markers stroke fill"
       d="m 66,72.999997 h 1 v 1 h 1 v 2 h -1 v 1 h -1 z"
       id="path32" />
    <path
       style="fill:#000000;fill-opacity:0.5;stroke:none;stroke-width:2;stroke-linecap:round;paint-order:markers stroke fill"
       d="m 56,68.999997 h -2 v -9.999999 h 2 z"
       id="path33"
       sodipodi:nodetypes="ccccc" />
    <path
       style="fill:#000000;fill-opacity:0.3;stroke:none;stroke-width:2;stroke-linecap:round;paint-order:markers stroke fill"
       d="m 54,59.999998 h -2 v 7.999999 h 2 z"
       id="path34" />
    <path
       style="fill:#000000;fill-opacity:0.5;stroke:none;stroke-width:2;stroke-linecap:round;paint-order:markers stroke fill"
       d="m 52,40.999998 v 14 h 2 v -14 z"
       id="path35" />
    <path
       style="fill:#000000;fill-opacity:0.2;stroke:none;stroke-width:2;stroke-linecap:round;paint-order:markers stroke fill"
       d="m 48,55.999998 h 1 v -2 h 1 v -2 h 2 v 5 h -2 v 1 h -2 z"
       id="path36"
       sodipodi:nodetypes="ccccccccccc" />
    <path
       style="fill:#000000;fill-opacity:0.2;stroke:none;stroke-width:2;stroke-linecap:round;paint-order:markers stroke fill"
       d="m 48,39.999998 h 1 v 2 h 1 v 2 h 2 v -5 h -2 v -1 h -2 z"
       id="path36-6"
       sodipodi:nodetypes="ccccccccccc" />
    <path
       style="fill:#000000;fill-opacity:0.1;stroke:none;stroke-width:2;stroke-linecap:round;paint-order:markers stroke fill"
       d="m 50,43.999998 v 8 h 2 v -8 z"
       id="path37"
       sodipodi:nodetypes="ccccc" />
    <g
       id="g68"
       transform="matrix(-1,0,0,1,96,0)">
      <use
         x="0"
         y="0"
         xlink:href="#path21"
         id="use53" />
      <use
         x="0"
         y="0"
         xlink:href="#path22"
         id="use54" />
      <use
         x="0"
         y="0"
         xlink:href="#path23"
         id="use55" />
      <use
         x="0"
         y="0"
         xlink:href="#path24"
         id="use56" />
      <use
         x="0"
         y="0"
         xlink:href="#path25"
         id="use57" />
      <use
         x="0"
         y="0"
         xlink:href="#path27"
         id="use58" />
      <use
         x="0"
         y="0"
         xlink:href="#path28"
         id="use59" />
      <use
         x="0"
         y="0"
         xlink:href="#path30"
         id="use60" />
      <use
         x="0"
         y="0"
         xlink:href="#path31"
         id="use61" />
      <use
         x="0"
         y="0"
         xlink:href="#path32"
         id="use62" />
      <use
         x="0"
         y="0"
         xlink:href="#path33"
         id="use63" />
      <use
         x="0"
         y="0"
         xlink:href="#path34"
         id="use64" />
      <use
         x="0"
         y="0"
         xlink:href="#path35"
         id="use65" />
      <use
         x="0"
         y="0"
         xlink:href="#path36"
         id="use66" />
      <use
         x="0"
         y="0"
         xlink:href="#path36-6"
         id="use67" />
      <use
         x="0"
         y="0"
         xlink:href="#path37"
         id="use68" />
    </g>
  </g>
  <metadata
     id="metadata1">
    <rdf:RDF>
      <cc:Work
         rdf:about="">
        <cc:license
           rdf:resource="https://healingdrawing.github.io/info/license/fpl.html" />
      </cc:Work>
    </rdf:RDF>
  </metadata>
</svg>
